<svg id="Layer_1" xmlns="http://www.w3.org/2000/svg" viewBox="0 0 239.5 96.61">
    <title>Artboard 1</title>
    <path d="M51.1,46a11.15,11.15,0,0,1-5.45,10.14A17.59,17.59,0,0,1,40,58.26a31.39,31.39,0,0,1-6.46.66H15.28V14.32h18.3a28.67,28.67,0,0,1,5.45.54,16.21,16.21,0,0,1,5.06,1.82,10.6,10.6,0,0,1,3.7,3.5,10.15,10.15,0,0,1,1.43,5.61,9.13,9.13,0,0,1-2.08,6.14,11.61,11.61,0,0,1-5.45,3.5v.12a12.8,12.8,0,0,1,3.67,1.17,10.49,10.49,0,0,1,3,2.17A10,10,0,0,1,51.1,46ZM38.51,27.24a3.53,3.53,0,0,0-1.78-3.31,10.77,10.77,0,0,0-5.29-1H26v9.2h6a8.21,8.21,0,0,0,4.83-1.23A4.16,4.16,0,0,0,38.51,27.24ZM40,44.94a3.9,3.9,0,0,0-2.14-3.84A12.77,12.77,0,0,0,32.15,40H26V50.23h6.23A16.9,16.9,0,0,0,34.91,50a8.71,8.71,0,0,0,2.53-.79,4.85,4.85,0,0,0,1.85-1.6A4.71,4.71,0,0,0,40,44.94Z"
          style="fill:#5958ff"/>
    <path d="M69.4,17.53a5.13,5.13,0,0,1-.49,2.24,5.84,5.84,0,0,1-1.3,1.8,6,6,0,0,1-1.94,1.19,6.39,6.39,0,0,1-2.37.44A6,6,0,0,1,59,21.53a5.31,5.31,0,0,1-1.75-4,5.41,5.41,0,0,1,.45-2.17,5.26,5.26,0,0,1,1.3-1.8,6.92,6.92,0,0,1,1.95-1.22,5.91,5.91,0,0,1,2.4-.48,6.6,6.6,0,0,1,2.37.44,6.23,6.23,0,0,1,1.94,1.2,5.73,5.73,0,0,1,1.3,1.8A5.12,5.12,0,0,1,69.4,17.53ZM58,58.92V27.55H68.62V58.92Z"
          style="fill:#5958ff"/>
    <path d="M88.6,35.24v12a5.31,5.31,0,0,0,.88,3.32,3.8,3.8,0,0,0,3.15,1.11,10.75,10.75,0,0,0,1.65-.13,6,6,0,0,0,1.46-.37l.13,7.56a18.06,18.06,0,0,1-2.79.66,20.17,20.17,0,0,1-3.37.28,16.18,16.18,0,0,1-5.45-.79,8.44,8.44,0,0,1-3.54-2.27,8.81,8.81,0,0,1-1.91-3.54,16.67,16.67,0,0,1-.59-4.58V35.24H73V27.55h5.13V19.3H88.6v8.25h7.6v7.69Z"
          style="fill:#5958ff"/>
    <path d="M101.78,58.92V14.32h11.16V49.54h17.78v9.38Z" style="fill:#5958ff"/>
    <path d="M146.87,17.53a5.27,5.27,0,0,1-.48,2.24,5.71,5.71,0,0,1-3.25,3,6.31,6.31,0,0,1-2.37.44,6,6,0,0,1-4.34-1.67,5.32,5.32,0,0,1-1.76-4,5.42,5.42,0,0,1,.46-2.17,5.13,5.13,0,0,1,1.3-1.8,7,7,0,0,1,1.94-1.22,6,6,0,0,1,2.4-.48,6.52,6.52,0,0,1,2.37.44,6.17,6.17,0,0,1,2,1.2,5.89,5.89,0,0,1,1.3,1.8A5.26,5.26,0,0,1,146.87,17.53ZM135.45,58.92V27.55H146.1V58.92Z"
          style="fill:#5958ff"/>
    <path d="M175.75,58.92V41.79a13.65,13.65,0,0,0-.23-2.52,6.92,6.92,0,0,0-.74-2.11,3.91,3.91,0,0,0-1.46-1.45,4.72,4.72,0,0,0-2.37-.54,5.48,5.48,0,0,0-2.5.54,5,5,0,0,0-1.78,1.48,6.59,6.59,0,0,0-1.08,2.17,9.42,9.42,0,0,0-.35,2.56v17H154.53V27.55h10.32V31.9H165a10.75,10.75,0,0,1,1.52-2,9.51,9.51,0,0,1,2.21-1.67,13.64,13.64,0,0,1,2.76-1.13,11.26,11.26,0,0,1,3.18-.44,12.3,12.3,0,0,1,5.51,1.13,10.56,10.56,0,0,1,3.67,2.93,11.44,11.44,0,0,1,2,4.13,18.2,18.2,0,0,1,.62,4.66v19.4Z"
          style="fill:#5958ff"/>
    <path d="M229.22,58.92H216.05L205.47,43.87h-.2V58.92h-10.7V11.3h10.7v29h.2l10.32-12.73H228.7L216.24,41.73Z"
          style="fill:#5958ff"/>
    <path d="M84.69,90.61a14.12,14.12,0,0,1-1.13-18.49A13.8,13.8,0,0,1,95,66.52c2.46,0,4.92,0,7.38.12a3,3,0,0,1,2.89,3.19,3,3,0,0,1-3.1,2.85c-1.48,0-3-.05-4.44-.07-.93,0-1.87,0-2.8,0a8.14,8.14,0,0,0-.16,16.27q7.86.14,15.71.24a8.56,8.56,0,0,0,2.85-.45,8,8,0,0,0,5.45-7.44,3.08,3.08,0,0,1,3.64-3A3,3,0,0,1,124.82,81a13.45,13.45,0,0,1-2.7,8.25,13.93,13.93,0,0,1-11.88,5.85q-7.93-.09-15.88-.25A13.9,13.9,0,0,1,84.69,90.61Z"
          style="fill:#5958ff"/>
    <path d="M147.18,71.11a14.11,14.11,0,0,1,1.08,18.41,13.76,13.76,0,0,1-11.41,5.61c-2.46,0-4.92,0-7.38-.11a3,3,0,0,1-2.54-4.46A2.92,2.92,0,0,1,129.71,89l5.27.08c.67,0,1.34,0,2,0a7.83,7.83,0,0,0,7.25-4.52,7.7,7.7,0,0,0-.76-8.47,8,8,0,0,0-6.79-3.3c-5.13-.05-10.25-.16-15.38-.22a8.06,8.06,0,0,0-8.25,7.86,3.07,3.07,0,0,1-4.1,2.93,3,3,0,0,1-2-2.76A13.36,13.36,0,0,1,109.25,73a13.87,13.87,0,0,1,12.23-6.48c5.33,0,10.66.13,16,.24A13.89,13.89,0,0,1,147.18,71.11Z"
          style="fill:#5958ff"/>
</svg>
